<svg width="1847" height="395" viewBox="0 0 1847 395" fill="none" xmlns="http://www.w3.org/2000/svg">
<rect width="1847" height="395" fill="white"/>
<path fill-rule="evenodd" clip-rule="evenodd" d="M238.274 258.855C250.806 295.095 305.122 312.095 333.972 280.809C294.596 284.351 272.164 256.312 265.703 225.283C289.295 193.348 308.619 160.149 325.559 133.042C335.004 143.359 325.559 133.042 335.004 143.359L334.794 81C309.34 126.99 226.886 275.833 155.003 307.665C183.801 303.463 214.123 285.11 238.274 258.855Z" fill="black" stroke="black" stroke-width="5"/>
<path fill-rule="evenodd" clip-rule="evenodd" d="M176.211 147.602C192.231 140.396 206.319 146.407 213.711 157.093C219.892 166.02 224.256 176.887 227.155 188.486L250.666 155.228C231.651 119.54 196.087 118.199 163.138 131.815C55.753 176.19 71.6624 316.655 135.245 307.58C201.584 298.114 305.172 115.239 314.186 96.9602L265.269 116.378L282.165 122.36C100.512 418.973 89.4079 186.64 176.211 147.602Z" fill="#2C9DD8" stroke="#2C9DD8" stroke-width="5"/>
<path d="M137 311.441C145 309 149.5 307.5 157 304C157 304 158.885 305.764 161.5 309C154 311.441 137 311.441 137 311.441Z" fill="#273758"/>
<path d="M473.8 243.193H421.4L413 267.993H377.2L428 127.593H467.6L518.4 267.993H482.2L473.8 243.193ZM465 216.793L447.6 165.393L430.4 216.793H465ZM568.061 119.993V267.993H533.861V119.993H568.061ZM627.045 172.193C630.379 166.993 634.979 162.793 640.845 159.593C646.712 156.393 653.579 154.793 661.445 154.793C670.645 154.793 678.979 157.126 686.445 161.793C693.912 166.459 699.779 173.126 704.045 181.793C708.445 190.459 710.645 200.526 710.645 211.993C710.645 223.459 708.445 233.593 704.045 242.393C699.779 251.059 693.912 257.793 686.445 262.593C678.979 267.259 670.645 269.593 661.445 269.593C653.712 269.593 646.845 267.993 640.845 264.793C634.979 261.593 630.379 257.459 627.045 252.393V321.193H592.845V156.393H627.045V172.193ZM675.845 211.993C675.845 203.459 673.445 196.793 668.645 191.993C663.979 187.059 658.179 184.593 651.245 184.593C644.445 184.593 638.645 187.059 633.845 191.993C629.179 196.926 626.845 203.659 626.845 212.193C626.845 220.726 629.179 227.459 633.845 232.393C638.645 237.326 644.445 239.793 651.245 239.793C658.045 239.793 663.845 237.326 668.645 232.393C673.445 227.326 675.845 220.526 675.845 211.993ZM797.188 155.193C809.988 155.193 820.254 159.459 827.988 167.993C835.721 176.393 839.588 187.993 839.588 202.793V267.993H805.588V207.393C805.588 199.926 803.654 194.126 799.788 189.993C795.921 185.859 790.721 183.793 784.188 183.793C777.654 183.793 772.454 185.859 768.588 189.993C764.721 194.126 762.788 199.926 762.788 207.393V267.993H728.588V119.993H762.788V171.393C766.254 166.459 770.988 162.526 776.988 159.593C782.988 156.659 789.721 155.193 797.188 155.193ZM856.553 211.993C856.553 200.526 858.686 190.459 862.953 181.793C867.353 173.126 873.286 166.459 880.753 161.793C888.22 157.126 896.553 154.793 905.753 154.793C913.62 154.793 920.486 156.393 926.353 159.593C932.353 162.793 936.953 166.993 940.153 172.193V156.393H974.353V267.993H940.153V252.193C936.82 257.393 932.153 261.593 926.153 264.793C920.286 267.993 913.42 269.593 905.553 269.593C896.486 269.593 888.22 267.259 880.753 262.593C873.286 257.793 867.353 251.059 862.953 242.393C858.686 233.593 856.553 223.459 856.553 211.993ZM940.153 212.193C940.153 203.659 937.753 196.926 932.953 191.993C928.286 187.059 922.553 184.593 915.753 184.593C908.953 184.593 903.153 187.059 898.353 191.993C893.686 196.793 891.353 203.459 891.353 211.993C891.353 220.526 893.686 227.326 898.353 232.393C903.153 237.326 908.953 239.793 915.753 239.793C922.553 239.793 928.286 237.326 932.953 232.393C937.753 227.459 940.153 220.726 940.153 212.193Z" fill="#2C9DD8"/>
<path d="M1051.7 127.593C1066.5 127.593 1079.43 130.526 1090.5 136.393C1101.56 142.259 1110.1 150.526 1116.1 161.193C1122.23 171.726 1125.3 183.926 1125.3 197.793C1125.3 211.526 1122.23 223.726 1116.1 234.393C1110.1 245.059 1101.5 253.326 1090.3 259.193C1079.23 265.059 1066.36 267.993 1051.7 267.993H999.095V127.593H1051.7ZM1049.5 238.393C1062.43 238.393 1072.5 234.859 1079.7 227.793C1086.9 220.726 1090.5 210.726 1090.5 197.793C1090.5 184.859 1086.9 174.793 1079.7 167.593C1072.5 160.393 1062.43 156.793 1049.5 156.793H1033.3V238.393H1049.5ZM1249.61 210.393C1249.61 213.593 1249.41 216.926 1249.01 220.393H1171.61C1172.14 227.326 1174.34 232.659 1178.21 236.393C1182.21 239.993 1187.07 241.793 1192.81 241.793C1201.34 241.793 1207.27 238.193 1210.61 230.993H1247.01C1245.14 238.326 1241.74 244.926 1236.81 250.793C1232.01 256.659 1225.94 261.259 1218.61 264.593C1211.27 267.926 1203.07 269.593 1194.01 269.593C1183.07 269.593 1173.34 267.259 1164.81 262.593C1156.27 257.926 1149.61 251.259 1144.81 242.593C1140.01 233.926 1137.61 223.793 1137.61 212.193C1137.61 200.593 1139.94 190.459 1144.61 181.793C1149.41 173.126 1156.07 166.459 1164.61 161.793C1173.14 157.126 1182.94 154.793 1194.01 154.793C1204.81 154.793 1214.41 157.059 1222.81 161.593C1231.21 166.126 1237.74 172.593 1242.41 180.993C1247.21 189.393 1249.61 199.193 1249.61 210.393ZM1214.61 201.393C1214.61 195.526 1212.61 190.859 1208.61 187.393C1204.61 183.926 1199.61 182.193 1193.61 182.193C1187.87 182.193 1183.01 183.859 1179.01 187.193C1175.14 190.526 1172.74 195.259 1171.81 201.393H1214.61ZM1260.85 212.193C1260.85 200.593 1263.18 190.459 1267.85 181.793C1272.65 173.126 1279.25 166.459 1287.65 161.793C1296.18 157.126 1305.92 154.793 1316.85 154.793C1330.85 154.793 1342.52 158.459 1351.85 165.793C1361.32 173.126 1367.52 183.459 1370.45 196.793H1334.05C1330.98 188.259 1325.05 183.993 1316.25 183.993C1309.98 183.993 1304.98 186.459 1301.25 191.393C1297.52 196.193 1295.65 203.126 1295.65 212.193C1295.65 221.259 1297.52 228.259 1301.25 233.193C1304.98 237.993 1309.98 240.393 1316.25 240.393C1325.05 240.393 1330.98 236.126 1334.05 227.593H1370.45C1367.52 240.659 1361.32 250.926 1351.85 258.393C1342.38 265.859 1330.72 269.593 1316.85 269.593C1305.92 269.593 1296.18 267.259 1287.65 262.593C1279.25 257.926 1272.65 251.259 1267.85 242.593C1263.18 233.926 1260.85 223.793 1260.85 212.193ZM1439.54 269.593C1428.61 269.593 1418.74 267.259 1409.94 262.593C1401.28 257.926 1394.41 251.259 1389.34 242.593C1384.41 233.926 1381.94 223.793 1381.94 212.193C1381.94 200.726 1384.48 190.659 1389.54 181.993C1394.61 173.193 1401.54 166.459 1410.34 161.793C1419.14 157.126 1429.01 154.793 1439.94 154.793C1450.88 154.793 1460.74 157.126 1469.54 161.793C1478.34 166.459 1485.28 173.193 1490.34 181.993C1495.41 190.659 1497.94 200.726 1497.94 212.193C1497.94 223.659 1495.34 233.793 1490.14 242.593C1485.08 251.259 1478.08 257.926 1469.14 262.593C1460.34 267.259 1450.48 269.593 1439.54 269.593ZM1439.54 239.993C1446.08 239.993 1451.61 237.593 1456.14 232.793C1460.81 227.993 1463.14 221.126 1463.14 212.193C1463.14 203.259 1460.88 196.393 1456.34 191.593C1451.94 186.793 1446.48 184.393 1439.94 184.393C1433.28 184.393 1427.74 186.793 1423.34 191.593C1418.94 196.259 1416.74 203.126 1416.74 212.193C1416.74 221.126 1418.88 227.993 1423.14 232.793C1427.54 237.593 1433.01 239.993 1439.54 239.993ZM1509.29 211.993C1509.29 200.526 1511.42 190.459 1515.69 181.793C1520.09 173.126 1526.02 166.459 1533.49 161.793C1540.95 157.126 1549.29 154.793 1558.49 154.793C1565.82 154.793 1572.49 156.326 1578.49 159.393C1584.62 162.459 1589.42 166.593 1592.89 171.793V119.993H1627.09V267.993H1592.89V251.993C1589.69 257.326 1585.09 261.593 1579.09 264.793C1573.22 267.993 1566.35 269.593 1558.49 269.593C1549.29 269.593 1540.95 267.259 1533.49 262.593C1526.02 257.793 1520.09 251.059 1515.69 242.393C1511.42 233.593 1509.29 223.459 1509.29 211.993ZM1592.89 212.193C1592.89 203.659 1590.49 196.926 1585.69 191.993C1581.02 187.059 1575.29 184.593 1568.49 184.593C1561.69 184.593 1555.89 187.059 1551.09 191.993C1546.42 196.793 1544.09 203.459 1544.09 211.993C1544.09 220.526 1546.42 227.326 1551.09 232.393C1555.89 237.326 1561.69 239.793 1568.49 239.793C1575.29 239.793 1581.02 237.326 1585.69 232.393C1590.49 227.459 1592.89 220.726 1592.89 212.193ZM1757.03 210.393C1757.03 213.593 1756.83 216.926 1756.43 220.393H1679.03C1679.56 227.326 1681.76 232.659 1685.63 236.393C1689.63 239.993 1694.5 241.793 1700.23 241.793C1708.76 241.793 1714.7 238.193 1718.03 230.993H1754.43C1752.56 238.326 1749.16 244.926 1744.23 250.793C1739.43 256.659 1733.36 261.259 1726.03 264.593C1718.7 267.926 1710.5 269.593 1701.43 269.593C1690.5 269.593 1680.76 267.259 1672.23 262.593C1663.7 257.926 1657.03 251.259 1652.23 242.593C1647.43 233.926 1645.03 223.793 1645.03 212.193C1645.03 200.593 1647.36 190.459 1652.03 181.793C1656.83 173.126 1663.5 166.459 1672.03 161.793C1680.56 157.126 1690.36 154.793 1701.43 154.793C1712.23 154.793 1721.83 157.059 1730.23 161.593C1738.63 166.126 1745.16 172.593 1749.83 180.993C1754.63 189.393 1757.03 199.193 1757.03 210.393ZM1722.03 201.393C1722.03 195.526 1720.03 190.859 1716.03 187.393C1712.03 183.926 1707.03 182.193 1701.03 182.193C1695.3 182.193 1690.43 183.859 1686.43 187.193C1682.56 190.526 1680.16 195.259 1679.23 201.393H1722.03Z" fill="black"/>
</svg>
