<svg width="25" height="25" viewBox="0 0 25 25" fill="none" xmlns="http://www.w3.org/2000/svg">
<rect width="25" height="25" rx="5" fill="#31AE22"/>
<path d="M21.2854 7.56034C20.0725 7.86237 18.8588 8.16441 17.6443 8.46328L17.6178 8.47907C17.3805 8.51906 17.1516 8.59238 16.9162 8.64114C17.2882 8.9765 17.6504 9.32168 18.0186 9.66055C16.6081 10.9715 15.1969 12.2817 13.7818 13.5881C13.7637 13.5849 13.7277 13.5793 13.7099 13.5765C13.6327 13.4818 13.5366 13.4025 13.4412 13.3243C13.2493 13.1285 13.0412 12.9471 12.838 12.7616C12.6419 12.5693 12.4353 12.3862 12.2321 12.2007C11.6307 11.6352 11.024 11.0743 10.4151 10.5158C10.2172 10.3264 10.0208 10.1348 9.80995 9.95732C9.75848 9.89733 9.70134 9.84156 9.63738 9.7935C9.60142 9.75281 9.56282 9.79981 9.53709 9.82332C7.52334 11.686 5.51526 13.5547 3.5 15.416C3.89435 15.7739 4.28075 16.139 4.67169 16.5C4.71521 16.4263 4.78636 16.373 4.84994 16.3155C6.43226 14.8478 8.01495 13.3807 9.59688 11.9141C10.9866 13.1945 12.3702 14.4819 13.7553 15.7665C15.5484 14.1079 17.337 12.4448 19.1301 10.7862C19.1475 10.7775 19.182 10.7599 19.1994 10.7512C19.5354 11.0757 19.8863 11.3861 20.2246 11.7088C20.2394 11.7166 20.2685 11.732 20.2829 11.7397C20.3162 11.6327 20.3563 11.5271 20.3711 11.4166L20.3892 11.3889C20.7514 10.091 21.1469 8.8004 21.5 7.5C21.433 7.53333 21.3588 7.54771 21.2854 7.56034Z" fill="white"/>
</svg>
